<?xml version="1.0" encoding="UTF-8" standalone="no"?><!DOCTYPE svg PUBLIC "-//W3C//DTD SVG 1.1//EN" "http://www.w3.org/Graphics/SVG/1.1/DTD/svg11.dtd"><svg width="100%" height="100%" viewBox="0 0 90 68" version="1.1" xmlns="http://www.w3.org/2000/svg" xmlns:xlink="http://www.w3.org/1999/xlink" xml:space="preserve" style="fill-rule:evenodd;clip-rule:evenodd;stroke-linejoin:round;stroke-miterlimit:1.41421;"><path d="M13.3,34.62c-2.342,0 -4.27,-1.928 -4.27,-4.27c0,-2.342 1.928,-4.27 4.27,-4.27c2.342,0 4.27,1.928 4.27,4.27c-0.005,2.34 -1.93,4.265 -4.27,4.27l0,0ZM13.3,28.07c-1.245,0 -2.27,1.025 -2.27,2.27c0,1.245 1.025,2.27 2.27,2.27c1.245,0 2.27,-1.025 2.27,-2.27c-0.005,-1.243 -1.027,-2.265 -2.27,-2.27l0,0Z" style="fill:#9a9a9a;fill-rule:nonzero;"/><path d="M88.5,66.92l-87,0c-0.549,0 -1,-0.451 -1,-1c0,-0.549 0.451,-1 1,-1l87,0c0.549,0 1,0.451 1,1c0,0.549 -0.451,1 -1,1Z" style="fill:#9a9a9a;fill-rule:nonzero;"/><path d="M18.3,66.73l-10,0c-0.549,0 -1,-0.451 -1,-1l0,-23.81c0,-0.549 0.451,-1 1,-1l10,0c0.549,0 1,0.451 1,1l0,23.81c0,0.549 -0.451,1 -1,1ZM9.3,64.73l8,0l0,-21.81l-8,0l0,21.81Z" style="fill:#9a9a9a;fill-rule:nonzero;"/><path d="M29.29,21.62c-2.342,0 -4.27,-1.928 -4.27,-4.27c0,-2.342 1.928,-4.27 4.27,-4.27c2.342,0 4.27,1.928 4.27,4.27c-0.005,2.34 -1.93,4.265 -4.27,4.27l0,0ZM29.29,15.07c-1.245,0 -2.27,1.025 -2.27,2.27c0,1.245 1.025,2.27 2.27,2.27c1.245,0 2.27,-1.025 2.27,-2.27c-0.005,-1.243 -1.027,-2.265 -2.27,-2.27l0,0Z" style="fill:#9a9a9a;fill-rule:nonzero;"/><path d="M34.29,66.73l-10,0c-0.549,0 -1,-0.451 -1,-1l0,-36.81c0,-0.549 0.451,-1 1,-1l10,0c0.549,0 1,0.451 1,1l0,36.81c0,0.549 -0.451,1 -1,1ZM25.29,64.73l8,0l0,-34.81l-8,0l0,34.81Z" style="fill:#9a9a9a;fill-rule:nonzero;"/><path d="M45.32,30.62c-2.342,0 -4.27,-1.928 -4.27,-4.27c0,-2.342 1.928,-4.27 4.27,-4.27c2.342,0 4.27,1.928 4.27,4.27c-0.005,2.34 -1.93,4.265 -4.27,4.27l0,0ZM45.32,24.07c-1.245,0 -2.27,1.025 -2.27,2.27c0,1.245 1.025,2.27 2.27,2.27c1.245,0 2.27,-1.025 2.27,-2.27c-0.005,-1.243 -1.027,-2.265 -2.27,-2.27l0,0Z" style="fill:#9a9a9a;fill-rule:nonzero;"/><path d="M50.32,66.73l-10,0c-0.549,0 -1,-0.451 -1,-1l0,-27.81c0,-0.549 0.451,-1 1,-1l10,0c0.549,0 1,0.451 1,1l0,27.81c0,0.549 -0.451,1 -1,1ZM41.32,64.73l8,0l0,-25.81l-8,0l0,25.81Z" style="fill:#9a9a9a;fill-rule:nonzero;"/><path d="M61.31,15.62c-2.342,0 -4.27,-1.928 -4.27,-4.27c0,-2.342 1.928,-4.27 4.27,-4.27c2.342,0 4.27,1.928 4.27,4.27c-0.005,2.34 -1.93,4.265 -4.27,4.27ZM61.31,9.07c-1.245,0 -2.27,1.025 -2.27,2.27c0,1.245 1.025,2.27 2.27,2.27c1.245,0 2.27,-1.025 2.27,-2.27c-0.005,-1.243 -1.027,-2.265 -2.27,-2.27Z" style="fill:#9a9a9a;fill-rule:nonzero;"/><path d="M66.31,66.73l-10,0c-0.549,0 -1,-0.451 -1,-1l0,-42.81c0,-0.549 0.451,-1 1,-1l10,0c0.549,0 1,0.451 1,1l0,42.81c0,0.549 -0.451,1 -1,1ZM57.31,64.73l8,0l0,-40.81l-8,0l0,40.81Z" style="fill:#9a9a9a;fill-rule:nonzero;"/><path d="M77.31,9.62c-2.342,0 -4.27,-1.928 -4.27,-4.27c0,-2.342 1.928,-4.27 4.27,-4.27c2.342,0 4.27,1.928 4.27,4.27c-0.005,2.34 -1.93,4.265 -4.27,4.27ZM77.31,3.07c-1.245,0 -2.27,1.025 -2.27,2.27c0,1.245 1.025,2.27 2.27,2.27c1.245,0 2.27,-1.025 2.27,-2.27c-0.005,-1.243 -1.027,-2.265 -2.27,-2.27Z" style="fill:#9a9a9a;fill-rule:nonzero;"/><path d="M82.31,66.73l-10,0c-0.549,0 -1,-0.451 -1,-1l0,-48.81c0,-0.549 0.451,-1 1,-1l10,0c0.549,0 1,0.451 1,1l0,48.81c0,0.549 -0.451,1 -1,1ZM73.31,64.73l8,0l0,-46.81l-8,0l0,46.81Z" style="fill:#9a9a9a;fill-rule:nonzero;"/><path d="M64.48,11.16c-0.003,0 -0.006,0 -0.009,0c-0.549,0 -1,-0.451 -1,-1c0,-0.42 0.264,-0.797 0.659,-0.94l9.76,-3.66c0.096,-0.03 0.196,-0.045 0.296,-0.045c0.549,0 1,0.451 1,1c0,0.396 -0.234,0.755 -0.596,0.915l-9.76,3.66c-0.112,0.044 -0.23,0.068 -0.35,0.07l0,0Z" style="fill:#9a9a9a;fill-rule:nonzero;"/><path d="M47.7,25.11c-0.006,0 -0.011,0 -0.017,0c-0.548,0 -1,-0.451 -1,-1c0,-0.276 0.115,-0.541 0.317,-0.73l11.24,-10.53c0.186,-0.174 0.431,-0.271 0.685,-0.271c0.549,0 1.001,0.452 1.001,1.001c0,0.276 -0.114,0.541 -0.316,0.73l-11.22,10.53c-0.187,0.175 -0.434,0.272 -0.69,0.27l0,0Z" style="fill:#9a9a9a;fill-rule:nonzero;"/><path d="M42.46,25.74c-0.162,-0.006 -0.319,-0.05 -0.46,-0.13l-10.34,-5.79c-0.311,-0.179 -0.503,-0.511 -0.503,-0.87c0,-0.55 0.453,-1.003 1.003,-1.003c0.175,0 0.348,0.046 0.5,0.133l10.34,5.79c0.314,0.177 0.509,0.511 0.509,0.871c0,0.549 -0.451,1 -1,1c-0.016,0 -0.033,0 -0.049,-0.001l0,0Z" style="fill:#9a9a9a;fill-rule:nonzero;"/><path d="M15.84,29.28c-0.001,0 -0.003,0 -0.004,0c-0.549,0 -1,-0.451 -1,-1c0,-0.303 0.138,-0.59 0.374,-0.78l10.92,-8.87c0.171,-0.126 0.379,-0.194 0.591,-0.194c0.549,0 1,0.452 1,1c0,0.284 -0.12,0.554 -0.331,0.744l-10.92,8.88c-0.179,0.143 -0.401,0.221 -0.63,0.22l0,0Z" style="fill:#9a9a9a;fill-rule:nonzero;"/></svg>