<?xml version="1.0" encoding="UTF-8" standalone="no"?><!DOCTYPE svg PUBLIC "-//W3C//DTD SVG 1.1//EN" "http://www.w3.org/Graphics/SVG/1.1/DTD/svg11.dtd"><svg width="100%" height="100%" viewBox="0 0 80 80" version="1.1" xmlns="http://www.w3.org/2000/svg" xmlns:xlink="http://www.w3.org/1999/xlink" xml:space="preserve" style="fill-rule:evenodd;clip-rule:evenodd;stroke-linejoin:round;stroke-miterlimit:1.41421;"><g><path d="M71.65,39.2c-0.4,-17 -14.4,-30.8 -31.6,-30.8c-7,0 -13.6,2.2 -19.1,6.4l-0.4,0.3l0.6,0.8l0.4,-0.3c5.4,-4.1 11.7,-6.2 18.5,-6.2c16.8,0 30.5,13.6 30.6,30.4l-8.4,-7.2l-0.7,0.8l9.4,8l8.9,-9.6l-0.7,-0.7l-7.5,8.1Z" style="fill:#999;fill-rule:nonzero;"/><path d="M8.45,40c0,17.4 14.2,31.6 31.6,31.6c6.7,0 13.2,-2.1 18.6,-6l0.4,-0.3l-0.6,-0.8l-0.4,0.2c-5.3,3.8 -11.5,5.8 -18,5.8c-16.9,0 -30.6,-13.7 -30.6,-30.6l0,-0.5l8.3,7.1l0.7,-0.8l-9.4,-8l-8.9,9.6l0.7,0.7l7.6,-8ZM9.15,39.3l0.3,0.2l-0.5,0l0.2,-0.2Z" style="fill:#999;fill-rule:nonzero;"/></g></svg>