<?xml version="1.0" standalone="no"?><!DOCTYPE svg PUBLIC "-//W3C//DTD SVG 1.1//EN" "http://www.w3.org/Graphics/SVG/1.1/DTD/svg11.dtd"><svg width="100%" height="100%" viewBox="0 0 417 417" version="1.1" xmlns="http://www.w3.org/2000/svg" xmlns:xlink="http://www.w3.org/1999/xlink" xml:space="preserve" style="fill-rule:evenodd;clip-rule:evenodd;stroke-linejoin:round;stroke-miterlimit:1.41421;"><path d="M373.592,199.083l-130.884,0l0,19.875l130.884,0l0,-19.875ZM221.171,71.517l-127.567,0l0,19.879l127.575,0l0,-19.879l-0.008,0ZM373.592,282.746l-130.884,0l0,19.879l130.884,0l0,-19.879ZM373.592,240.496l-130.884,0l0,19.883l130.884,0l0,-19.883ZM350.4,371.388l-327.204,-0.001l0,-276.683l7.458,0l0,-23.192l-30.654,0l0,323.059l373.592,0l0,-30.642l-23.192,0l0,7.458ZM371.104,71.517l-128.396,0l0,104.371l128.396,0l0,-104.371ZM221.171,282.746l-127.567,0l0,19.879l127.575,0l0,-19.879l-0.008,0ZM48.046,25.954l0,323.063l368.621,0l0,-323.063l-368.621,0ZM393.475,325.813l-322.238,0l0,-277.492l322.234,0l0.004,277.492ZM221.171,240.496l-127.567,0l0,19.883l127.575,0l0,-19.883l-0.008,0ZM221.171,113.758l-127.567,0l0,19.88l127.575,0l0,-19.88l-0.008,0ZM221.171,199.083l-127.567,0l0,19.875l127.575,0l0,-19.875l-0.008,0ZM221.171,156.833l-127.567,0l0,19.88l127.575,0l0,-19.88l-0.008,0Z" style="fill:#fff;fill-opacity:0.8;fill-rule:nonzero;"/></svg>