<?xml version="1.0" encoding="UTF-8" standalone="no"?><!DOCTYPE svg PUBLIC "-//W3C//DTD SVG 1.1//EN" "http://www.w3.org/Graphics/SVG/1.1/DTD/svg11.dtd"><svg width="100%" height="100%" viewBox="0 0 180 120" version="1.1" xmlns="http://www.w3.org/2000/svg" xmlns:xlink="http://www.w3.org/1999/xlink" xml:space="preserve" style="fill-rule:evenodd;clip-rule:evenodd;stroke-linejoin:round;stroke-miterlimit:1.41421;"><rect x="0" y="0" width="180" height="120" style="fill:#ebebeb;"/><path d="M123.172,40.388l-3.874,-22.64l-79.298,13.923l11.622,66.223l7.87,-1.332l0,5.69l80.508,0l0,-61.864l-16.828,0ZM59.492,89.903l-2.542,0.484l-9.443,-53.39l66.465,-11.744l2.664,15.134l-57.144,0l0,49.516ZM133.463,95.714l-67.434,0l0,-48.789l67.434,0l0,48.789Z" style="fill:#a9a9a9;fill-rule:nonzero;"/><path d="M70.387,51.283l0,36.198l13.681,-9.079l8.474,5.326l20.581,-22.639l2.664,1.089l13.317,15.376l0,-26.271l-58.717,0l0,0ZM83.462,66.9c-3.147,0 -5.811,-2.663 -5.811,-5.811c0,-3.148 2.664,-5.812 5.811,-5.812c3.148,0 5.811,2.663 5.811,5.812c0,3.148 -2.663,5.811 -5.811,5.811Z" style="fill:#a9a9a9;fill-rule:nonzero;"/></svg>