<?xml version="1.0" standalone="no"?><!DOCTYPE svg PUBLIC "-//W3C//DTD SVG 1.1//EN" "http://www.w3.org/Graphics/SVG/1.1/DTD/svg11.dtd"><svg width="100%" height="100%" viewBox="0 0 159 159" version="1.1" xmlns="http://www.w3.org/2000/svg" xmlns:xlink="http://www.w3.org/1999/xlink" xml:space="preserve" style="fill-rule:evenodd;clip-rule:evenodd;stroke-linejoin:round;stroke-miterlimit:1.41421;"><path d="M62.143,6.254c2.574,0.049 5.138,0.243 7.684,0.632c5.154,0.789 10.191,2.316 14.914,4.523c5.423,2.533 10.422,5.956 14.753,10.085c4.325,4.123 7.977,8.945 10.767,14.23c2.528,4.788 4.342,9.949 5.362,15.268c1.145,5.969 1.295,12.13 0.452,18.149c-0.786,5.614 -2.448,11.099 -4.91,16.205c-2.886,5.986 -6.862,11.435 -11.671,16.02c-4.98,4.748 -10.843,8.558 -17.213,11.163c-6.603,2.7 -13.718,4.081 -20.85,4.081c-7.133,0 -14.248,-1.381 -20.851,-4.081c-6.37,-2.605 -12.233,-6.415 -17.213,-11.163c-4.809,-4.585 -8.785,-10.034 -11.671,-16.02c-2.462,-5.106 -4.123,-10.591 -4.91,-16.205c-0.843,-6.02 -0.693,-12.18 0.452,-18.149c0.979,-5.1 2.686,-10.055 5.054,-14.676c2.827,-5.516 6.589,-10.545 11.075,-14.822c4.331,-4.129 9.331,-7.552 14.753,-10.085c4.724,-2.207 9.76,-3.734 14.914,-4.523c2.546,-0.389 5.11,-0.583 7.684,-0.632c0.713,-0.004 0.711,-0.004 1.425,0ZM60.768,10.196c-2.391,0.045 -4.773,0.225 -7.138,0.586c-4.783,0.732 -9.458,2.149 -13.842,4.198c-5.036,2.352 -9.679,5.532 -13.701,9.367c-4.167,3.973 -7.661,8.643 -10.287,13.767c-2.198,4.289 -3.783,8.887 -4.691,13.62c-1.063,5.545 -1.203,11.268 -0.42,16.86c0.73,5.21 2.273,10.301 4.558,15.04c2.68,5.56 6.373,10.621 10.84,14.879c4.625,4.41 10.069,7.949 15.985,10.367c6.131,2.507 12.736,3.789 19.359,3.789c6.622,0 13.227,-1.282 19.358,-3.789c5.916,-2.418 11.361,-5.957 15.985,-10.367c4.467,-4.258 8.16,-9.319 10.841,-14.879c2.285,-4.739 3.827,-9.83 4.557,-15.04c0.783,-5.592 0.643,-11.315 -0.42,-16.86c-0.947,-4.936 -2.63,-9.726 -4.977,-14.17c-2.591,-4.909 -5.984,-9.387 -10.001,-13.217c-4.022,-3.835 -8.665,-7.015 -13.701,-9.367c-4.384,-2.049 -9.058,-3.466 -13.842,-4.198c-2.365,-0.361 -4.747,-0.541 -7.138,-0.586c-0.664,-0.005 -0.662,-0.005 -1.325,0Z" style="fill:#000;fill-rule:nonzero;stroke-width:4.17px;stroke:#555;"/><path d="M100.322,98.167c0.259,0.038 0.502,0.098 0.735,0.223c0.152,0.081 0.184,0.112 0.322,0.215c17.506,15.867 33.421,33.407 50.128,50.114c0.115,0.127 0.149,0.156 0.245,0.299c0.215,0.322 0.332,0.707 0.332,1.095c0,0.193 -0.029,0.386 -0.085,0.572c-0.29,0.957 -1.289,1.556 -2.27,1.36c-0.326,-0.064 -0.602,-0.213 -0.866,-0.409c-17.507,-15.867 -33.421,-33.407 -50.128,-50.115c-0.221,-0.243 -0.396,-0.503 -0.492,-0.821c-0.25,-0.821 0.077,-1.734 0.791,-2.211c0.276,-0.184 0.576,-0.274 0.901,-0.322c0.195,-0.01 0.193,-0.01 0.387,0Z" style="fill:#555;fill-rule:nonzero;stroke-width:4.17px;stroke:#555;"/></svg>